<svg width="298" height="369" xmlns="http://www.w3.org/2000/svg" xmlns:xlink="http://www.w3.org/1999/xlink" overflow="hidden"><defs><clipPath id="clip0"><rect x="19" y="272" width="298" height="369"/></clipPath></defs><g clip-path="url(#clip0)" transform="translate(-19 -272)"><path d="M168 574C86.4699 574 20 506.407 20 423.5 20 340.593 86.4699 273 168 273 249.53 273 316 340.593 316 423.5 316 506.407 249.53 574 168 574ZM168 280.393C90.105 280.393 26.7505 344.818 26.7505 424.029 26.7505 503.238 90.105 567.663 168 567.663 245.895 567.663 309.249 503.238 309.249 424.029 309.249 344.818 245.895 280.393 168 280.393Z" fill="#706F6F" fill-rule="evenodd"/><path d="M154.099 498.522C160.778 526.668 143.779 554.803 116.131 561.364 88.4827 567.925 60.6552 550.428 53.976 522.282 47.2969 494.137 64.2955 466.002 91.9438 459.441 119.592 452.879 147.42 470.377 154.099 498.522Z" fill="#4DA43B" fill-rule="evenodd"/><path d="M154.117 365.197C160.796 393.343 143.797 421.478 116.149 428.039 88.5005 434.6 60.673 417.102 53.9939 388.957 47.3147 360.811 64.3133 332.676 91.9616 326.115 119.61 319.554 147.437 337.051 154.117 365.197Z" fill="#F15931" fill-rule="evenodd"/><path d="M281.97 451.45C288.65 479.596 271.651 507.731 244.003 514.292 216.354 520.853 188.527 503.356 181.848 475.21 175.169 447.064 192.167 418.93 219.815 412.368 247.464 405.807 275.291 423.305 281.97 451.45Z" fill="#94ABB4" fill-rule="evenodd"/><path d="M281.988 318.125C288.667 346.27 271.669 374.405 244.021 380.967 216.372 387.528 188.545 370.03 181.866 341.885 175.186 313.739 192.185 285.604 219.833 279.043 247.482 272.482 275.309 289.979 281.988 318.125Z" fill="#00A8A9" fill-rule="evenodd"/><path d="M168.147 445C167.627 445 166.59 444.476 166.072 444.476L102.778 379.457C101.741 378.409 101.741 376.835 102.778 375.787 103.816 374.738 105.373 374.738 106.41 375.787L170.222 440.281C171.259 441.33 171.259 442.903 170.222 443.951 169.703 444.476 169.184 445 168.147 445Z" fill="#706F6F" fill-rule="evenodd"/><path d="M167.853 398.001C167.335 398.001 166.297 397.472 165.778 397.472 164.741 396.416 164.741 394.832 165.778 393.774L229.59 328.793C230.627 327.736 232.184 327.736 233.222 328.793 234.259 329.849 234.259 331.434 233.222 332.491L169.928 397.472C169.41 398.001 168.891 398.001 167.853 398.001Z" fill="#706F6F" fill-rule="evenodd"/><path d="M167.853 531.001C167.335 531.001 166.297 530.472 165.778 530.472 164.741 529.416 164.741 527.832 165.778 526.774L229.59 461.793C230.627 460.736 232.184 460.736 233.222 461.793 234.259 462.849 234.259 464.434 233.222 465.491L169.928 530.472C169.41 531.001 168.891 531.001 167.853 531.001Z" fill="#706F6F" fill-rule="evenodd"/><path d="M168.147 579.001C167.627 579.001 166.59 578.472 166.072 578.472L102.778 513.491C101.741 512.434 101.741 510.849 102.778 509.793 103.816 508.736 105.373 508.736 106.41 509.793L170.222 574.774C171.259 575.832 171.259 577.416 170.222 578.472 169.703 578.472 169.184 579.001 168.147 579.001Z" fill="#706F6F" fill-rule="evenodd"/><path d="M182.401 632.598 171.601 632.598 171.601 367.701C171.601 365.587 170.057 364 168 364 165.944 364 164.4 365.587 164.4 367.701L164.4 632.598 153.6 632.598C151.543 632.598 150 634.184 150 636.299 150 638.413 151.543 640 153.6 640L182.401 640C184.458 640 186.001 638.413 186.001 636.299 186.001 634.184 184.458 632.598 182.401 632.598Z" fill="#706F6F" fill-rule="evenodd"/></g></svg>