<?xml version="1.0" encoding="UTF-8" standalone="no"?><svg xmlns="http://www.w3.org/2000/svg" xmlns:xlink="http://www.w3.org/1999/xlink" contentScriptType="application/ecmascript" contentStyleType="text/css" height="251px" preserveAspectRatio="none" style="width:283px;height:251px;" version="1.1" viewBox="0 0 283 251" width="283px" zoomAndPan="magnify"><defs/><g><!--MD5=[11261669bbac56c22ae06f634b9325a5]
entity marz--><path d="M46.3654,17.0743 C49.0383,10.0879 54.105,9.2308 58.8532,15.0506 C60.8819,8.67 65.0013,7.6578 69.6348,12.5619 C71.9817,5.6044 76.7092,5.7911 81.1653,10.4721 C85.0987,5.0304 91.6528,3.9497 94.5257,11.5578 C99.3374,6.6562 104.048,7.615 106.053,14.3405 C109.806,10.3328 114.673,10.6837 116.7713,16.2022 C122.6628,19.0958 124.0771,23.7694 118.2717,28.1339 C123.6316,31.2924 125.5663,36.0008 119.465,40.2848 C125.5664,42.7795 125.4055,46.352 121.2946,50.6494 C125.8959,55.7244 125.4145,59.3054 118.8403,61.9541 C124.0466,65.149 122.9602,69.1482 118.6961,72.2099 C125.0284,76.5954 122.8909,82.1229 116.9417,84.7965 C113.3182,91.598 108.3987,91.109 104.4639,85.0997 C102.7936,91.5587 97.0967,91.7086 93.0444,87.6976 C90.5245,93.9403 84.7875,93.5177 81.6108,88.3561 C78.2673,92.8525 72.6471,93.2685 70.3274,87.2568 C66.0528,93.3305 60.6248,92.7413 57.8092,85.8484 C53.2246,91.8136 47.184,90.393 45.0458,83.4327 C39.606,79.9292 40.1532,76.3997 44.7422,72.6148 C39.1485,70.2543 38.6537,65.8794 42.5975,61.6528 C36.2545,59.9647 35.1417,54.5202 39.5572,50.0202 C34.9453,46.1068 36.0756,42.1385 41.4278,40.105 C35.8332,35.6837 37.5291,29.7588 43.9771,27.8406 C39.9034,24.0818 41.1141,18.7645 46.3654,17.0743 " fill="#ADD8E6" style="stroke: #000000; stroke-width: 1.5;"/><text fill="#000000" font-family="sans-serif" font-size="14" lengthAdjust="spacingAndGlyphs" textLength="0" x="56" y="37.5332"/><text fill="#000000" font-family="sans-serif" font-size="14" lengthAdjust="spacingAndGlyphs" textLength="57" x="52" y="55.1426">Marzipan</text><text fill="#000000" font-family="sans-serif" font-size="14" lengthAdjust="spacingAndGlyphs" textLength="0" x="56" y="72.752"/><!--MD5=[02a97bd5537ebfe6dd9b43c41c1a12e3]
entity market--><path d="M168.2515,16.4905 C171.1281,10.7423 176.9762,10.8897 179.9666,16.3718 C180.8439,10.4551 185.446,8.4687 189.9714,12.8158 C192.3752,7.7753 197.2252,7.0876 200.6214,11.7236 C203.8029,6.6159 207.7747,5.8953 211.6574,10.9632 C216.0796,6.0798 221.3298,5.1731 224.6539,12.1649 C228.236,7.8365 232.1159,7.3341 235.1942,12.712 C239.4373,8.9352 244.2329,8.4729 246.1577,15.1446 C250.7077,9.616 255,11.4075 258.0071,16.8161 C265.1815,19.2868 264.912,23.9115 260.8104,28.9808 C265.9547,31.2305 267.2777,35.1497 262.6958,39.1948 C270.1915,40.3531 271.0341,45.936 266.8029,51.1298 C270.9732,56.505 269.0897,61.2683 262.3734,62.343 C267.0968,66.4991 267.5993,71.029 260.9452,73.762 C264.3935,79.5262 262.1436,82.7662 256.0021,83.8147 C253.6078,89.6923 249.5123,90.3865 245.28,85.6761 C242.5099,90.6927 238.1178,92.5442 233.9886,87.1501 C232.5949,93.5528 227.3907,94.8732 223.2794,89.6543 C220.9606,94.9894 215.8888,96.1893 211.8515,91.6413 C207.9801,96.0456 204.3392,94.5984 201.8301,90.1067 C196.9353,93.6168 193.1309,92.4537 191.3448,86.6187 C186.4687,92.1991 182.2684,91.5587 178.3186,85.5752 C175.2713,91.0517 170.3992,89.6002 168.0274,84.8927 C161.8311,82.5448 160.5792,76.6796 164.9794,71.8545 C159.1859,70.103 157.8613,65.228 161.5685,60.5977 C156.6726,59.4045 155.514,55.1269 158.9894,51.548 C153.5281,45.8924 154.0725,41.6795 161.8447,39.0464 C157.2759,34.5441 158.7664,29.8359 164.3884,27.598 C161.0788,22.0901 162.0688,18.6971 168.2515,16.4905 " fill="#FFA500" style="stroke: #000000; stroke-width: 1.5;"/><text fill="#000000" font-family="sans-serif" font-size="14" lengthAdjust="spacingAndGlyphs" textLength="0" x="178" y="37.5332"/><text fill="#000000" font-family="sans-serif" font-size="14" lengthAdjust="spacingAndGlyphs" textLength="75" x="174" y="55.1426">Market data</text><text fill="#000000" font-family="sans-serif" font-size="14" lengthAdjust="spacingAndGlyphs" textLength="0" x="178" y="72.752"/><!--MD5=[5941d7bf6796b2421daf7f00e34c622b]
entity pt--><path d="M14.1119,160.2527 C16.7514,154.9352 20.9752,154.0637 25.142,158.5311 C27.611,153.3692 32.4423,151.389 36.6201,156.649 C39.7815,151.2209 43.8606,151.4479 47.707,155.8787 C51.1905,150.206 56.9731,150.1952 60.1408,156.2146 C61.5445,150.4574 66.5339,149.2532 70.6717,153.268 C74.0658,147.6249 78.5562,148.0132 81.979,153.2381 C85.1865,148.3726 90.2168,148.0274 92.6706,153.9829 C96.3889,150.3231 100.988,150.9694 103.0973,155.9292 C106.4305,149.0045 112.192,149.484 115.8398,155.6224 C120.3473,152.3582 124.2329,151.927 126.1501,158.3729 C129.2107,153.6672 133.0568,153.4278 136.4021,158.0605 C141.2166,153.6411 145.2014,154.2186 147.7301,160.4839 C152.3083,163.0917 152.6607,167.0269 148.2948,170.1569 C155.9532,173.2183 155.0298,177.9514 150.348,182.9875 C155.6825,186.4967 156.4244,190.992 150.4092,194.5612 C154.7477,197.9078 156.1882,201.4381 150.6034,204.9698 C155.4623,209.0874 155.132,212.9675 149.9633,216.53 C155.1737,221.0409 153.4658,224.5345 148.4862,227.6976 C145.6982,233.0322 141.0198,234.1395 137.0775,228.9488 C133.8594,235.2413 129.0018,234.0259 125.43,229.3235 C123.1812,233.8707 119.0984,234.9551 115.8717,230.3442 C112.6502,236.1051 106.2569,236.9666 103.0168,230.3635 C100.3871,236.1347 95.2235,235.9542 91.6041,231.4643 C89.9774,237.2356 85.6648,237.9562 81.8825,233.5165 C79.1082,238.1082 73.8001,238.6163 71.1877,233.3409 C66.5582,237.481 63.0686,237.4241 60.172,231.4529 C56.8871,237.2745 51.0125,236.8321 48.2399,230.9314 C44.22,235.9459 40.3747,235.0522 37.0474,230.1497 C32.4196,234.4205 28.48,232.8127 26.192,227.4995 C22.8885,232.4306 18.585,233.6892 14.8742,227.9308 C8.8814,225.5681 8.1036,219.707 13.6148,216.118 C6.8822,214.1251 5.6417,209.2551 9.5796,203.774 C3.0074,201.5939 2.916,197.699 6.8515,192.8861 C3.0043,187.6491 4.2658,183.8413 10.4023,181.8028 C5.5934,177.5713 6.1122,173.8613 12.2469,171.6102 C7.3155,167.1052 7.827,162.9159 14.1119,160.2527 " fill="#90EE90" style="stroke: #000000; stroke-width: 1.5;"/><text fill="#000000" font-family="sans-serif" font-size="14" lengthAdjust="spacingAndGlyphs" textLength="0" x="25" y="180.5332"/><text fill="#000000" font-family="sans-serif" font-size="14" lengthAdjust="spacingAndGlyphs" textLength="119" x="21" y="198.1426">Product Templates</text><text fill="#000000" font-family="sans-serif" font-size="14" lengthAdjust="spacingAndGlyphs" textLength="0" x="25" y="215.752"/><!--MD5=[e14bfcad9336735f4435ed6c525b255e]
entity iam--><path d="M198.3915,160.7974 C200.094,150.2766 208.1171,146.4131 216.9212,153.1899 C226.4788,145.9665 232.1221,148.3333 236.2791,159.0254 C242.6846,161.3062 243.179,166.3778 238.0931,170.4787 C244.2568,171.9643 247.0624,177.4779 241.7915,182.4857 C247.6649,184.367 249.6506,189.8031 245.2091,194.5954 C249.4195,199.0051 247.8512,202.9379 242.3541,204.5686 C245.5575,209.4196 245.1443,213.8833 238.5509,215.2442 C244.0901,220.0771 242.4261,226.1446 235.2243,227.5267 C232.1563,238.5104 225.5192,239.5998 217.551,232.2506 C208.8881,238.8503 202.9597,238.3847 198.8507,227.4061 C193.4419,225.5868 191.8119,220.9646 196.1543,216.6914 C190.0547,214.3916 188.9549,209.0842 193.8283,204.6626 C189.3511,201.2988 187.8303,197.8954 193.3418,194.0727 C187.9407,190.0068 189.6321,185.6638 194.8859,183.0968 C189.6367,179.1709 189.2858,173.5598 196.2373,170.9965 C191.9559,166.4044 192.527,163.2465 198.3915,160.7974 " fill="#FFC0CB" style="stroke: #000000; stroke-width: 1.5;"/><text fill="#000000" font-family="sans-serif" font-size="14" lengthAdjust="spacingAndGlyphs" textLength="0" x="209" y="180.5332"/><text fill="#000000" font-family="sans-serif" font-size="14" lengthAdjust="spacingAndGlyphs" textLength="23" x="205" y="198.1426">IAM</text><text fill="#000000" font-family="sans-serif" font-size="14" lengthAdjust="spacingAndGlyphs" textLength="0" x="209" y="215.752"/><!--MD5=[81e24ef87a7de50c4aba5a458de68d27]
link marz to market--><!--MD5=[b8ec933d192479343cc9ed409db0d2b5]
link marz to pt--><!--MD5=[863533bcd827cf577b63185e108dae66]
link pt to iam--><!--MD5=[e8a7f17495f64a1b36234366982a4d80]
@startuml bounded_context

skinparam component {
    ArrowColor BLACK
}

cloud "\n  Marzipan  \n" as marz #lightblue
cloud "\n   Market data    \n" as market #orange
cloud "\n  Product Templates  \n" as pt #lightgreen
cloud "\n     IAM     \n" as iam #pink



@enduml

PlantUML version 1.2020.08(Sun Apr 26 16:08:22 CEST 2020)
(GPL source distribution)
Java Runtime: OpenJDK Runtime Environment
JVM: OpenJDK 64-Bit Server VM
Java Version: 11.0.5+10
Operating System: Windows 10
Default Encoding: Cp1252
Language: de
Country: DE
--></g></svg>