<?xml version="1.0" encoding="UTF-8" standalone="no"?><svg xmlns="http://www.w3.org/2000/svg" xmlns:xlink="http://www.w3.org/1999/xlink" contentScriptType="application/ecmascript" contentStyleType="text/css" height="269px" preserveAspectRatio="none" style="width:347px;height:269px;" version="1.1" viewBox="0 0 347 269" width="347px" zoomAndPan="magnify"><defs/><g><!--MD5=[11261669bbac56c22ae06f634b9325a5]
entity marz--><path d="M15.3654,178.0743 C18.0383,171.0879 23.105,170.2308 27.8532,176.0506 C29.8819,169.67 34.0013,168.6578 38.6348,173.5619 C40.9817,166.6044 45.7092,166.7911 50.1653,171.4721 C54.0987,166.0304 60.6528,164.9497 63.5257,172.5578 C68.3374,167.6562 73.048,168.615 75.053,175.3405 C78.806,171.3328 83.673,171.6837 85.7713,177.2022 C91.6628,180.0958 93.0771,184.7694 87.2717,189.1339 C92.6316,192.2924 94.5663,197.0008 88.465,201.2848 C94.5664,203.7795 94.4055,207.352 90.2946,211.6494 C94.8959,216.7244 94.4145,220.3054 87.8403,222.9541 C93.0466,226.149 91.9602,230.1482 87.6961,233.2099 C94.0284,237.5954 91.8909,243.1229 85.9417,245.7965 C82.3182,252.598 77.3987,252.109 73.4639,246.0997 C71.7936,252.5587 66.0967,252.7086 62.0444,248.6976 C59.5245,254.9403 53.7875,254.5177 50.6108,249.3561 C47.2673,253.8525 41.6471,254.2685 39.3274,248.2568 C35.0528,254.3305 29.6248,253.7413 26.8092,246.8484 C22.2246,252.8136 16.184,251.393 14.0458,244.4327 C8.606,240.9292 9.1532,237.3997 13.7422,233.6148 C8.1485,231.2543 7.6537,226.8794 11.5975,222.6528 C5.2545,220.9647 4.1417,215.5202 8.5572,211.0202 C3.9453,207.1068 5.0756,203.1385 10.4278,201.105 C4.8332,196.6837 6.5291,190.7588 12.9771,188.8406 C8.9034,185.0818 10.1141,179.7645 15.3654,178.0743 " fill="#ADD8E6" style="stroke: #000000; stroke-width: 1.5;"/><text fill="#000000" font-family="sans-serif" font-size="14" lengthAdjust="spacingAndGlyphs" textLength="0" x="25" y="198.5332"/><text fill="#000000" font-family="sans-serif" font-size="14" lengthAdjust="spacingAndGlyphs" textLength="57" x="21" y="216.1426">Marzipan</text><text fill="#000000" font-family="sans-serif" font-size="14" lengthAdjust="spacingAndGlyphs" textLength="0" x="25" y="233.752"/><!--MD5=[02a97bd5537ebfe6dd9b43c41c1a12e3]
entity market--><path d="M232.2515,16.4905 C235.1281,10.7423 240.9762,10.8897 243.9666,16.3718 C244.8439,10.4551 249.446,8.4687 253.9714,12.8158 C256.3752,7.7753 261.2252,7.0876 264.6214,11.7236 C267.8029,6.6159 271.7747,5.8953 275.6574,10.9632 C280.0796,6.0798 285.3298,5.1731 288.6539,12.1649 C292.236,7.8365 296.1159,7.3341 299.1942,12.712 C303.4373,8.9352 308.2329,8.4729 310.1577,15.1446 C314.7077,9.616 319,11.4075 322.0071,16.8161 C329.1815,19.2868 328.912,23.9115 324.8104,28.9808 C329.9547,31.2305 331.2777,35.1497 326.6958,39.1948 C334.1915,40.3531 335.0341,45.936 330.8029,51.1298 C334.9732,56.505 333.0897,61.2683 326.3734,62.343 C331.0968,66.4991 331.5993,71.029 324.9452,73.762 C328.3935,79.5262 326.1436,82.7662 320.0021,83.8147 C317.6078,89.6923 313.5123,90.3865 309.28,85.6761 C306.5099,90.6927 302.1178,92.5442 297.9886,87.1501 C296.5949,93.5528 291.3907,94.8732 287.2794,89.6543 C284.9606,94.9894 279.8888,96.1893 275.8515,91.6413 C271.9801,96.0456 268.3392,94.5984 265.8301,90.1067 C260.9353,93.6168 257.1309,92.4537 255.3448,86.6187 C250.4687,92.1991 246.2684,91.5587 242.3186,85.5752 C239.2713,91.0517 234.3992,89.6002 232.0274,84.8927 C225.8311,82.5448 224.5792,76.6796 228.9794,71.8545 C223.1859,70.103 221.8613,65.228 225.5685,60.5977 C220.6726,59.4045 219.514,55.1269 222.9894,51.548 C217.5281,45.8924 218.0725,41.6795 225.8447,39.0464 C221.2759,34.5441 222.7664,29.8359 228.3884,27.598 C225.0788,22.0901 226.0688,18.6971 232.2515,16.4905 " fill="#FFA500" style="stroke: #000000; stroke-width: 1.5;"/><text fill="#000000" font-family="sans-serif" font-size="14" lengthAdjust="spacingAndGlyphs" textLength="0" x="242" y="37.5332"/><text fill="#000000" font-family="sans-serif" font-size="14" lengthAdjust="spacingAndGlyphs" textLength="75" x="238" y="55.1426">Market data</text><text fill="#000000" font-family="sans-serif" font-size="14" lengthAdjust="spacingAndGlyphs" textLength="0" x="242" y="72.752"/><!--MD5=[5941d7bf6796b2421daf7f00e34c622b]
entity pt--><path d="M38.1119,17.2527 C40.7514,11.9352 44.9752,11.0637 49.142,15.5311 C51.611,10.3692 56.4423,8.389 60.6201,13.649 C63.7815,8.2209 67.8606,8.4479 71.707,12.8787 C75.1905,7.206 80.9731,7.1952 84.1408,13.2146 C85.5445,7.4574 90.5339,6.2532 94.6717,10.268 C98.0658,4.6249 102.5562,5.0132 105.979,10.2381 C109.1865,5.3726 114.2168,5.0274 116.6706,10.9829 C120.3889,7.3231 124.988,7.9694 127.0973,12.9292 C130.4305,6.0045 136.192,6.484 139.8398,12.6224 C144.3473,9.3582 148.2329,8.927 150.1501,15.3729 C153.2107,10.6672 157.0568,10.4278 160.4021,15.0605 C165.2166,10.6411 169.2014,11.2186 171.7301,17.4839 C176.3083,20.0917 176.6607,24.0269 172.2948,27.1569 C179.9532,30.2183 179.0298,34.9514 174.348,39.9875 C179.6825,43.4967 180.4244,47.992 174.4092,51.5612 C178.7477,54.9078 180.1882,58.4381 174.6034,61.9698 C179.4623,66.0874 179.132,69.9675 173.9633,73.53 C179.1737,78.0409 177.4658,81.5345 172.4862,84.6976 C169.6982,90.0322 165.0198,91.1395 161.0775,85.9488 C157.8594,92.2413 153.0018,91.0259 149.43,86.3235 C147.1812,90.8707 143.0984,91.9551 139.8717,87.3442 C136.6502,93.1051 130.2569,93.9666 127.0168,87.3635 C124.3871,93.1347 119.2235,92.9542 115.6041,88.4643 C113.9774,94.2356 109.6648,94.9562 105.8825,90.5165 C103.1082,95.1082 97.8001,95.6163 95.1877,90.3409 C90.5582,94.481 87.0686,94.4241 84.172,88.4529 C80.8871,94.2745 75.0125,93.8321 72.2399,87.9314 C68.22,92.9459 64.3747,92.0522 61.0474,87.1497 C56.4196,91.4205 52.48,89.8127 50.192,84.4995 C46.8885,89.4306 42.585,90.6892 38.8742,84.9308 C32.8814,82.5681 32.1036,76.707 37.6148,73.118 C30.8822,71.1251 29.6417,66.2551 33.5796,60.774 C27.0074,58.5939 26.916,54.699 30.8515,49.8861 C27.0043,44.6491 28.2658,40.8413 34.4023,38.8028 C29.5934,34.5713 30.1122,30.8613 36.2469,28.6102 C31.3155,24.1052 31.827,19.9159 38.1119,17.2527 " fill="#90EE90" style="stroke: #000000; stroke-width: 1.5;"/><text fill="#000000" font-family="sans-serif" font-size="14" lengthAdjust="spacingAndGlyphs" textLength="0" x="49" y="37.5332"/><text fill="#000000" font-family="sans-serif" font-size="14" lengthAdjust="spacingAndGlyphs" textLength="119" x="45" y="55.1426">Product Templates</text><text fill="#000000" font-family="sans-serif" font-size="14" lengthAdjust="spacingAndGlyphs" textLength="0" x="49" y="72.752"/><!--MD5=[e14bfcad9336735f4435ed6c525b255e]
entity iam--><path d="M141.3915,178.7974 C143.094,168.2766 151.1171,164.4131 159.9212,171.1899 C169.4788,163.9665 175.1221,166.3333 179.2791,177.0254 C185.6846,179.3062 186.179,184.3778 181.0931,188.4787 C187.2568,189.9643 190.0624,195.4779 184.7915,200.4857 C190.6649,202.367 192.6506,207.8031 188.2091,212.5954 C192.4195,217.0051 190.8512,220.9379 185.3541,222.5686 C188.5575,227.4196 188.1443,231.8833 181.5509,233.2442 C187.0901,238.0771 185.4261,244.1446 178.2243,245.5267 C175.1563,256.5104 168.5192,257.5998 160.551,250.2506 C151.8881,256.8503 145.9597,256.3847 141.8507,245.4061 C136.4419,243.5868 134.8119,238.9646 139.1543,234.6914 C133.0547,232.3916 131.9549,227.0842 136.8283,222.6626 C132.3511,219.2988 130.8303,215.8954 136.3418,212.0727 C130.9407,208.0068 132.6321,203.6638 137.8859,201.0968 C132.6367,197.1709 132.2858,191.5598 139.2373,188.9965 C134.9559,184.4044 135.527,181.2465 141.3915,178.7974 " fill="#FFC0CB" style="stroke: #000000; stroke-width: 1.5;"/><text fill="#000000" font-family="sans-serif" font-size="14" lengthAdjust="spacingAndGlyphs" textLength="0" x="152" y="198.5332"/><text fill="#000000" font-family="sans-serif" font-size="14" lengthAdjust="spacingAndGlyphs" textLength="23" x="148" y="216.1426">IAM</text><text fill="#000000" font-family="sans-serif" font-size="14" lengthAdjust="spacingAndGlyphs" textLength="0" x="152" y="233.752"/><!--MD5=[e1b1d15a2e3ec6a4be263b7787398b52]
link pt to marz--><path d="M63.3587,91.144 C56.4498,100.267 50.2974,110.407 46.5,121 C41.6947,134.404 40.7595,149.694 41.5228,163.751 " fill="none" id="pt-&gt;marz" style="stroke: #000000; stroke-width: 1.0;"/><polygon fill="#000000" points="41.8768,168.8682,45.246,159.6136,41.5317,163.8801,37.2651,160.1658,41.8768,168.8682" style="stroke: #000000; stroke-width: 1.0;"/><text fill="#000000" font-family="sans-serif" font-size="13" lengthAdjust="spacingAndGlyphs" textLength="68" x="47.5" y="135.4951">conforms to</text><!--MD5=[863533bcd827cf577b63185e108dae66]
link pt to iam--><path d="M118.521,91.034 C126.217,113.281 135.783,140.937 143.737,163.9317 " fill="none" id="pt-&gt;iam" style="stroke: #000000; stroke-width: 1.0;"/><polygon fill="#000000" points="145.409,168.7641,146.2473,158.951,143.7746,164.0388,138.6868,161.5661,145.409,168.7641" style="stroke: #000000; stroke-width: 1.0;"/><text fill="#000000" font-family="sans-serif" font-size="13" lengthAdjust="spacingAndGlyphs" textLength="68" x="135.5" y="135.4951">conforms to</text><!--MD5=[0dfeb914765dba49f2895047b93724b8]
link pt to market--><path d="M179.006,49.5 C193.766,49.5 208.971,49.5 222.821,49.5 " fill="none" id="pt-market" style="stroke: #000000; stroke-width: 1.0;"/><text fill="#000000" font-family="sans-serif" font-size="13" lengthAdjust="spacingAndGlyphs" textLength="7" x="197.5" y="42.9951">?</text><!--MD5=[85300b6d923aada6671da4a1455b2712]
@startuml context_map_partly

skinparam component {
    ArrowColor BLACK
}

cloud "\n  Marzipan  \n" as marz #lightblue
cloud "\n   Market data    \n" as market #orange
cloud "\n  Product Templates  \n" as pt #lightgreen
cloud "\n     IAM     \n" as iam #pink

pt - -> marz : conforms to
pt - -> iam : conforms to
pt - market : ?

@enduml

PlantUML version 1.2020.08(Sun Apr 26 16:08:22 CEST 2020)
(GPL source distribution)
Java Runtime: OpenJDK Runtime Environment
JVM: OpenJDK 64-Bit Server VM
Java Version: 11.0.5+10
Operating System: Windows 10
Default Encoding: Cp1252
Language: de
Country: DE
--></g></svg>