<?xml version="1.0" encoding="UTF-8" standalone="no"?><svg xmlns="http://www.w3.org/2000/svg" xmlns:xlink="http://www.w3.org/1999/xlink" contentScriptType="application/ecmascript" contentStyleType="text/css" height="269px" preserveAspectRatio="none" style="width:344px;height:269px;" version="1.1" viewBox="0 0 344 269" width="344px" zoomAndPan="magnify"><defs/><g><!--MD5=[11261669bbac56c22ae06f634b9325a5]
entity marz--><path d="M15.3654,178.0743 C18.0383,171.0879 23.105,170.2308 27.8532,176.0506 C29.8819,169.67 34.0013,168.6578 38.6348,173.5619 C40.9817,166.6044 45.7092,166.7911 50.1653,171.4721 C54.0987,166.0304 60.6528,164.9497 63.5257,172.5578 C68.3374,167.6562 73.048,168.615 75.053,175.3405 C78.806,171.3328 83.673,171.6837 85.7713,177.2022 C91.6628,180.0958 93.0771,184.7694 87.2717,189.1339 C92.6316,192.2924 94.5663,197.0008 88.465,201.2848 C94.5664,203.7795 94.4055,207.352 90.2946,211.6494 C94.8959,216.7244 94.4145,220.3054 87.8403,222.9541 C93.0466,226.149 91.9602,230.1482 87.6961,233.2099 C94.0284,237.5954 91.8909,243.1229 85.9417,245.7965 C82.3182,252.598 77.3987,252.109 73.4639,246.0997 C71.7936,252.5587 66.0967,252.7086 62.0444,248.6976 C59.5245,254.9403 53.7875,254.5177 50.6108,249.3561 C47.2673,253.8525 41.6471,254.2685 39.3274,248.2568 C35.0528,254.3305 29.6248,253.7413 26.8092,246.8484 C22.2246,252.8136 16.184,251.393 14.0458,244.4327 C8.606,240.9292 9.1532,237.3997 13.7422,233.6148 C8.1485,231.2543 7.6537,226.8794 11.5975,222.6528 C5.2545,220.9647 4.1417,215.5202 8.5572,211.0202 C3.9453,207.1068 5.0756,203.1385 10.4278,201.105 C4.8332,196.6837 6.5291,190.7588 12.9771,188.8406 C8.9034,185.0818 10.1141,179.7645 15.3654,178.0743 " fill="#ADD8E6" style="stroke: #000000; stroke-width: 1.5;"/><text fill="#000000" font-family="sans-serif" font-size="14" lengthAdjust="spacingAndGlyphs" textLength="0" x="25" y="198.5332"/><text fill="#000000" font-family="sans-serif" font-size="14" lengthAdjust="spacingAndGlyphs" textLength="57" x="21" y="216.1426">Marzipan</text><text fill="#000000" font-family="sans-serif" font-size="14" lengthAdjust="spacingAndGlyphs" textLength="0" x="25" y="233.752"/><!--MD5=[02a97bd5537ebfe6dd9b43c41c1a12e3]
entity market--><path d="M229.2515,16.4905 C232.1281,10.7423 237.9762,10.8897 240.9666,16.3718 C241.8439,10.4551 246.446,8.4687 250.9714,12.8158 C253.3752,7.7753 258.2252,7.0876 261.6214,11.7236 C264.8029,6.6159 268.7747,5.8953 272.6574,10.9632 C277.0796,6.0798 282.3298,5.1731 285.6539,12.1649 C289.236,7.8365 293.1159,7.3341 296.1942,12.712 C300.4373,8.9352 305.2329,8.4729 307.1577,15.1446 C311.7077,9.616 316,11.4075 319.0071,16.8161 C326.1815,19.2868 325.912,23.9115 321.8104,28.9808 C326.9547,31.2305 328.2777,35.1497 323.6958,39.1948 C331.1915,40.3531 332.0341,45.936 327.8029,51.1298 C331.9732,56.505 330.0897,61.2683 323.3734,62.343 C328.0968,66.4991 328.5993,71.029 321.9452,73.762 C325.3935,79.5262 323.1436,82.7662 317.0021,83.8147 C314.6078,89.6923 310.5123,90.3865 306.28,85.6761 C303.5099,90.6927 299.1178,92.5442 294.9886,87.1501 C293.5949,93.5528 288.3907,94.8732 284.2794,89.6543 C281.9606,94.9894 276.8888,96.1893 272.8515,91.6413 C268.9801,96.0456 265.3392,94.5984 262.8301,90.1067 C257.9353,93.6168 254.1309,92.4537 252.3448,86.6187 C247.4687,92.1991 243.2684,91.5587 239.3186,85.5752 C236.2713,91.0517 231.3992,89.6002 229.0274,84.8927 C222.8311,82.5448 221.5792,76.6796 225.9794,71.8545 C220.1859,70.103 218.8613,65.228 222.5685,60.5977 C217.6726,59.4045 216.514,55.1269 219.9894,51.548 C214.5281,45.8924 215.0725,41.6795 222.8447,39.0464 C218.2759,34.5441 219.7664,29.8359 225.3884,27.598 C222.0788,22.0901 223.0688,18.6971 229.2515,16.4905 " fill="#FFA500" style="stroke: #000000; stroke-width: 1.5;"/><text fill="#000000" font-family="sans-serif" font-size="14" lengthAdjust="spacingAndGlyphs" textLength="0" x="239" y="37.5332"/><text fill="#000000" font-family="sans-serif" font-size="14" lengthAdjust="spacingAndGlyphs" textLength="75" x="235" y="55.1426">Market data</text><text fill="#000000" font-family="sans-serif" font-size="14" lengthAdjust="spacingAndGlyphs" textLength="0" x="239" y="72.752"/><!--MD5=[5941d7bf6796b2421daf7f00e34c622b]
entity pt--><path d="M35.1119,17.2527 C37.7514,11.9352 41.9752,11.0637 46.142,15.5311 C48.611,10.3692 53.4423,8.389 57.6201,13.649 C60.7815,8.2209 64.8606,8.4479 68.707,12.8787 C72.1905,7.206 77.9731,7.1952 81.1408,13.2146 C82.5445,7.4574 87.5339,6.2532 91.6717,10.268 C95.0658,4.6249 99.5562,5.0132 102.979,10.2381 C106.1865,5.3726 111.2168,5.0274 113.6706,10.9829 C117.3889,7.3231 121.988,7.9694 124.0973,12.9292 C127.4305,6.0045 133.192,6.484 136.8398,12.6224 C141.3473,9.3582 145.2329,8.927 147.1501,15.3729 C150.2107,10.6672 154.0568,10.4278 157.4021,15.0605 C162.2166,10.6411 166.2014,11.2186 168.7301,17.4839 C173.3083,20.0917 173.6607,24.0269 169.2948,27.1569 C176.9532,30.2183 176.0298,34.9514 171.348,39.9875 C176.6825,43.4967 177.4244,47.992 171.4092,51.5612 C175.7477,54.9078 177.1882,58.4381 171.6034,61.9698 C176.4623,66.0874 176.132,69.9675 170.9633,73.53 C176.1737,78.0409 174.4658,81.5345 169.4862,84.6976 C166.6982,90.0322 162.0198,91.1395 158.0775,85.9488 C154.8594,92.2413 150.0018,91.0259 146.43,86.3235 C144.1812,90.8707 140.0984,91.9551 136.8717,87.3442 C133.6502,93.1051 127.2569,93.9666 124.0168,87.3635 C121.3871,93.1347 116.2235,92.9542 112.6041,88.4643 C110.9774,94.2356 106.6648,94.9562 102.8825,90.5165 C100.1082,95.1082 94.8001,95.6163 92.1877,90.3409 C87.5582,94.481 84.0686,94.4241 81.172,88.4529 C77.8871,94.2745 72.0125,93.8321 69.2399,87.9314 C65.22,92.9459 61.3747,92.0522 58.0474,87.1497 C53.4196,91.4205 49.48,89.8127 47.192,84.4995 C43.8885,89.4306 39.585,90.6892 35.8742,84.9308 C29.8814,82.5681 29.1036,76.707 34.6148,73.118 C27.8822,71.1251 26.6417,66.2551 30.5796,60.774 C24.0074,58.5939 23.916,54.699 27.8515,49.8861 C24.0043,44.6491 25.2658,40.8413 31.4023,38.8028 C26.5934,34.5713 27.1122,30.8613 33.2469,28.6102 C28.3155,24.1052 28.827,19.9159 35.1119,17.2527 " fill="#90EE90" style="stroke: #000000; stroke-width: 1.5;"/><text fill="#000000" font-family="sans-serif" font-size="14" lengthAdjust="spacingAndGlyphs" textLength="0" x="46" y="37.5332"/><text fill="#000000" font-family="sans-serif" font-size="14" lengthAdjust="spacingAndGlyphs" textLength="119" x="42" y="55.1426">Product Templates</text><text fill="#000000" font-family="sans-serif" font-size="14" lengthAdjust="spacingAndGlyphs" textLength="0" x="46" y="72.752"/><!--MD5=[e14bfcad9336735f4435ed6c525b255e]
entity iam--><path d="M136.3915,178.7974 C138.094,168.2766 146.1171,164.4131 154.9212,171.1899 C164.4788,163.9665 170.1221,166.3333 174.2791,177.0254 C180.6846,179.3062 181.179,184.3778 176.0931,188.4787 C182.2568,189.9643 185.0624,195.4779 179.7915,200.4857 C185.6649,202.367 187.6506,207.8031 183.2091,212.5954 C187.4195,217.0051 185.8512,220.9379 180.3541,222.5686 C183.5575,227.4196 183.1443,231.8833 176.5509,233.2442 C182.0901,238.0771 180.4261,244.1446 173.2243,245.5267 C170.1563,256.5104 163.5192,257.5998 155.551,250.2506 C146.8881,256.8503 140.9597,256.3847 136.8507,245.4061 C131.4419,243.5868 129.8119,238.9646 134.1543,234.6914 C128.0547,232.3916 126.9549,227.0842 131.8283,222.6626 C127.3511,219.2988 125.8303,215.8954 131.3418,212.0727 C125.9407,208.0068 127.6321,203.6638 132.8859,201.0968 C127.6367,197.1709 127.2858,191.5598 134.2373,188.9965 C129.9559,184.4044 130.527,181.2465 136.3915,178.7974 " fill="#FFC0CB" style="stroke: #000000; stroke-width: 1.5;"/><text fill="#000000" font-family="sans-serif" font-size="14" lengthAdjust="spacingAndGlyphs" textLength="0" x="147" y="198.5332"/><text fill="#000000" font-family="sans-serif" font-size="14" lengthAdjust="spacingAndGlyphs" textLength="23" x="143" y="216.1426">IAM</text><text fill="#000000" font-family="sans-serif" font-size="14" lengthAdjust="spacingAndGlyphs" textLength="0" x="147" y="233.752"/><!--MD5=[e1b1d15a2e3ec6a4be263b7787398b52]
link pt to marz--><path d="M88.2437,91.034 C80.4502,114.864 70.6273,144.899 62.8224,168.7641 " fill="none" id="pt-marz" style="stroke: #000000; stroke-width: 1.0;"/><text fill="#000000" font-family="sans-serif" font-size="13" lengthAdjust="spacingAndGlyphs" textLength="7" x="78.5" y="135.4951">?</text><!--MD5=[863533bcd827cf577b63185e108dae66]
link pt to iam--><path d="M115.011,91.034 C122.955,114.864 132.966,144.899 140.921,168.7641 " fill="none" id="pt-iam" style="stroke: #000000; stroke-width: 1.0;"/><text fill="#000000" font-family="sans-serif" font-size="13" lengthAdjust="spacingAndGlyphs" textLength="7" x="131.5" y="135.4951">?</text><!--MD5=[0dfeb914765dba49f2895047b93724b8]
link pt to market--><path d="M176.006,49.5 C190.766,49.5 205.971,49.5 219.821,49.5 " fill="none" id="pt-market" style="stroke: #000000; stroke-width: 1.0;"/><text fill="#000000" font-family="sans-serif" font-size="13" lengthAdjust="spacingAndGlyphs" textLength="7" x="194.5" y="42.9951">?</text><!--MD5=[ffa14170ce4183ac2a570c5ecc7b16b4]
@startuml context_map_undefined

skinparam component {
    ArrowColor BLACK
}

cloud "\n  Marzipan  \n" as marz #lightblue
cloud "\n   Market data    \n" as market #orange
cloud "\n  Product Templates  \n" as pt #lightgreen
cloud "\n     IAM     \n" as iam #pink

pt - - marz : ?
pt - - iam : ?
pt - market : ?

@enduml

PlantUML version 1.2020.08(Sun Apr 26 16:08:22 CEST 2020)
(GPL source distribution)
Java Runtime: OpenJDK Runtime Environment
JVM: OpenJDK 64-Bit Server VM
Java Version: 11.0.5+10
Operating System: Windows 10
Default Encoding: Cp1252
Language: de
Country: DE
--></g></svg>