<?xml version="1.0" encoding="UTF-8" standalone="no"?><svg xmlns="http://www.w3.org/2000/svg" xmlns:xlink="http://www.w3.org/1999/xlink" contentScriptType="application/ecmascript" contentStyleType="text/css" height="200px" preserveAspectRatio="none" style="width:406px;height:200px;" version="1.1" viewBox="0 0 406 200" width="406px" zoomAndPan="magnify"><defs><filter height="300%" id="fou7xbj8sa37d" width="300%" x="-1" y="-1"><feGaussianBlur result="blurOut" stdDeviation="2.0"/><feColorMatrix in="blurOut" result="blurOut2" type="matrix" values="0 0 0 0 0 0 0 0 0 0 0 0 0 0 0 0 0 0 .4 0"/><feOffset dx="4.0" dy="4.0" in="blurOut2" result="blurOut3"/><feBlend in="SourceGraphic" in2="blurOut3" mode="normal"/></filter><linearGradient id="gou7xbj8sa37d0" x1="50%" x2="50%" y1="0%" y2="100%"><stop offset="0%" stop-color="#90EE90"/><stop offset="100%" stop-color="#FF8C00"/></linearGradient></defs><g><!--MD5=[02a97bd5537ebfe6dd9b43c41c1a12e3]
entity market--><rect fill="#FFA500" filter="url(#fou7xbj8sa37d)" height="72.8281" style="stroke: #000000; stroke-width: 1.5;" width="95" x="6" y="8"/><text fill="#000000" font-family="sans-serif" font-size="14" lengthAdjust="spacingAndGlyphs" textLength="0" x="20" y="32.5332"/><text fill="#000000" font-family="sans-serif" font-size="14" lengthAdjust="spacingAndGlyphs" textLength="75" x="16" y="50.1426">Market data</text><text fill="#000000" font-family="sans-serif" font-size="14" lengthAdjust="spacingAndGlyphs" textLength="0" x="20" y="67.752"/><!--MD5=[5941d7bf6796b2421daf7f00e34c622b]
entity pt--><rect fill="#90EE90" filter="url(#fou7xbj8sa37d)" height="72.8281" style="stroke: #000000; stroke-width: 1.5;" width="139" x="256" y="8"/><text fill="#000000" font-family="sans-serif" font-size="14" lengthAdjust="spacingAndGlyphs" textLength="0" x="270" y="32.5332"/><text fill="#000000" font-family="sans-serif" font-size="14" lengthAdjust="spacingAndGlyphs" textLength="119" x="266" y="50.1426">Product Templates</text><text fill="#000000" font-family="sans-serif" font-size="14" lengthAdjust="spacingAndGlyphs" textLength="0" x="270" y="67.752"/><!--MD5=[53faa419a08812a9488cd2918663550b]
entity pt_mdb--><path d="M261,152 C261,142 325.5,142 325.5,142 C325.5,142 390,142 390,152 L390,178.6094 C390,188.6094 325.5,188.6094 325.5,188.6094 C325.5,188.6094 261,188.6094 261,178.6094 L261,152 " fill="url(#gou7xbj8sa37d0)" filter="url(#fou7xbj8sa37d)" style="stroke: #000000; stroke-width: 1.5;"/><path d="M261,152 C261,162 325.5,162 325.5,162 C325.5,162 390,162 390,152 " fill="none" style="stroke: #000000; stroke-width: 1.5;"/><text fill="#000000" font-family="sans-serif" font-size="14" lengthAdjust="spacingAndGlyphs" textLength="109" x="271" y="180.5332">Market data copy</text><!--MD5=[4920a37e6158bed0f2ce4a6934222013]
link market to pt--><path d="M101.19,44.5 C142.498,44.5 202.956,44.5 250.7,44.5 " fill="none" id="market-&gt;pt" style="stroke: #000000; stroke-width: 1.0;"/><polygon fill="#000000" points="255.866,44.5,246.866,40.5,250.866,44.5,246.866,48.5,255.866,44.5" style="stroke: #000000; stroke-width: 1.0;"/><text fill="#000000" font-family="sans-serif" font-size="13" lengthAdjust="spacingAndGlyphs" textLength="36" x="119.5" y="37.9951">Event:</text><text fill="#000000" font-family="sans-serif" font-size="13" font-style="italic" lengthAdjust="spacingAndGlyphs" textLength="78" x="159.5" y="37.9951">data modified</text><!--MD5=[e1165f1e032bb878f31e554c020aaf3a]
link pt to pt_mdb--><path d="M325.5,81.204 C325.5,98.9183 325.5,120.0018 325.5,136.5249 " fill="none" id="pt-&gt;pt_mdb" style="stroke: #000000; stroke-width: 1.0;"/><polygon fill="#000000" points="325.5,141.9421,329.5,132.9421,325.5,136.9421,321.5,132.9421,325.5,141.9421" style="stroke: #000000; stroke-width: 1.0;"/><!--MD5=[f6a95b8f2ad0b7c1416922b4f1ce6029]
@startuml market_data_2

skinparam component {
    ArrowColor BLACK
}

rectangle "\n   Market data    \n" as market #orange
rectangle "\n  Product Templates  \n" as pt #lightgreen
database "Market data copy" as pt_mdb #lightgreen-darkorange

market -> pt : Event: <i>data modified</i>
pt - -> pt_mdb

@enduml

PlantUML version 1.2020.08(Sun Apr 26 16:08:22 CEST 2020)
(GPL source distribution)
Java Runtime: OpenJDK Runtime Environment
JVM: OpenJDK 64-Bit Server VM
Java Version: 11.0.5+10
Operating System: Windows 10
Default Encoding: Cp1252
Language: de
Country: DE
--></g></svg>